<?xml version="1.0" encoding="utf-8"?>
<!-- Generator: Adobe Illustrator 23.0.1, SVG Export Plug-In . SVG Version: 6.00 Build 0)  -->
<svg version="1.1" xmlns="http://www.w3.org/2000/svg" xmlns:xlink="http://www.w3.org/1999/xlink" x="0px" y="0px" width="1024px"
	 height="1024px" viewBox="0 0 1024 1024" style="enable-background:new 0 0 1024 1024;" xml:space="preserve">
<style type="text/css">
	.st0{fill:#00AAAD;}
	.st1{fill:#231F20;}
	.st2{fill:#FFFFFF;}
	.st3{fill:none;}
</style>
<g id="Layer_1">
	
		<ellipse transform="matrix(0.7071 -0.7071 0.7071 0.7071 -212.8727 512.7908)" class="st0" cx="512.6" cy="513.4" rx="378.5" ry="378.5"/>
	
		<ellipse transform="matrix(0.7071 -0.7071 0.7071 0.7071 -212.8727 512.7908)" class="st0" cx="512.6" cy="513.4" rx="378.5" ry="378.5"/>
	<path class="st1" d="M940.9,513.4c0,236.6-191.8,428.4-428.4,428.4C276,941.7,84.2,749.9,84.2,513.4C84.2,276.8,276,85,512.6,85
		C749.1,85,940.9,276.8,940.9,513.4z M512.6,134.8C303.5,134.8,134,304.3,134,513.4c0,209.1,169.5,378.5,378.5,378.5
		c209.1,0,378.5-169.5,378.5-378.5C891.1,304.3,721.6,134.8,512.6,134.8z"/>
	<path class="st2" d="M803.6,361c-0.9-2.2-96.2,41.6-97.3,39.4c-1-2.1,92.2-50.1,91.1-52.1c-17.3-30.5-47.9-49.7-81.9-54.6
		c-1-0.1-27.9,100.7-28.9,100.6c-2.8-0.3,20.2-101.5,17.3-101.7c-20.1-1-41,3-60.6,12.6c0,0,34.9,79.1,16.4,102.2
		c-18.2,22.6-44.6,32.1-52.4,28.7c-16.6-28.5-45.3-77.2-39.9-101.3c7.2-32.1,68.5-72.4,68.5-72.4c-11.5-21.8-27.4-39.6-45.5-52.6
		c-2.6-1.8-42.1,101.9-44.8,100.2c-0.9-0.5,35.1-106.5,34.2-107.1c-32.5-19-70.5-23.3-103.5-8.7c-2.2,0.9,50.8,106.5,48.6,107.7
		c-2.2,1.1-59.4-102.1-61.5-100.8c-30.7,19.1-48.6,52.9-51.3,90.4c-0.1,1.1,107.8,31.1,107.7,32.2c-0.1,3.2-108-22.6-108-19.4
		c0.5,22.2,6.2,45.3,17.7,67.1c0,0,84.5-32.5,104.8-16.8c7.5,5.7,43.1,31.3,44.9,128.8c-18.3,18.7-172.1-102.3-209.4-56.3
		c-0.1,0.1-0.2,0.3-0.3,0.4c-5.1,2.7-10.6,0.2-18.5-18.1c-10.2-23.5,37.1-85.5,37.1-85.5c-14.5-11.9-31.2-19.1-48.5-21.9
		c-2.4-0.4-6,91.4-8.4,91.2c-0.8-0.1-0.6-92.3-1.4-92.4c-29.8-1.9-60,9.2-81.6,32.4c-1.5,1.5,66.4,60.1,65.1,61.7
		c-1.4,1.7-72-53.6-73.2-51.8c-18.6,25.7-23.6,57.5-15.9,86.4c0.2,0.8,90.6-17.3,90.9-16.5c0.7,2.4-88.7,23.8-87.8,26.1
		c6.1,16.3,16.5,31.3,30.9,43.2c0,0,51.4-57.1,76.7-53c17.7,2.8,23.6,8.2,24.9,13.3c-16.6,29.4-33.8,79.7-42.8,127.2
		c-5.1,9.2-15.8,13.3-33,5.5c-16-7.2-22.5-64.9-22.5-64.9c-12.6,1-24,5.7-33.6,13c-1.4,1,40.2,52.2,38.9,53.4
		c-0.4,0.4-43.8-49.3-44.2-48.9c-15.2,14.2-24.5,35.6-23.9,59.1c0,1.6,60.2-1.7,60.3-0.1c0.1,1.6-59.7,8-59.5,9.5
		c3.2,23.3,15.8,43,33,54.6c0.5,0.3,35.3-55.6,35.8-55.3c1.5,0.9-31.3,58.1-29.8,58.9c10.6,5.7,22.6,8.4,35.2,7.4
		c0,0-2.8-58,11.8-67.7c15-9.9,26.1-7.1,27.6,0.1c-5.5,43.5-2.1,80.7,17.7,91.4c52.7,28.6,93.2,1.4,119.7-20.9
		c9.9,9.3-1.3,57.1-15.8,104.8H300.9c0,0-19.5,73.4,43.4,111c62.9,37.7,271.5,39.9,338.2,0c68.7-42.9,43.4-111,43.4-111H595.7
		c-11.3-73.1-26.6-159.3-38.2-178.6c-20.9-34.8-85.7-49.8-111.7-23.2c-58.5,59.9-50.2-1.7-44.1-59.8c5.6-52.9,98.2,26.6,185.8,25.2
		c3.4-0.1,6.5-0.4,9.4-1c15.3,4.7,45.6,35.9,53.2,63c7.9,28-53.1,83.7-53.1,83.7c14,16.5,31.1,28.5,49.5,35.9
		c2.6,1,20.1-97.8,22.7-97c0.9,0.3-13.1,100.4-12.1,100.6c32.1,9.4,66.6,4.9,93.6-15c1.8-1.3-63.3-81.6-61.6-83.1
		c1.7-1.5,70.2,76,71.8,74.4c24-23.3,34.2-56.6,30.1-89.8c-0.1-1-101.1-3.6-101.2-4.6c-0.4-2.8,99.9-3.8,99.3-6.6
		c-4.2-19.3-13.2-38-27.2-54.5c0,0-64.9,50.9-91.3,38.6c-22.8-10.7-47.9-40.7-55-57.4c9.6-13.4,8.9-35.9,0.3-60.9
		c5.2-11.9,27.8-25.8,55.9-26.1c29.6-0.3,70.3,76,70.3,76c19.7-9.6,35.8-23.6,47.4-40c1.7-2.4-92.2-46.7-90.7-49.1
		c0.5-0.8,96.4,40.3,96.9,39.5C813,429.5,816.8,393.5,803.6,361z"/>
</g>
<g id="Layer_2">
	<rect class="st3" width="1024" height="1024"/>
</g>
</svg>
